<svg height="512pt" viewBox="0 -120 512.00201 512" width="512pt" xmlns="http://www.w3.org/2000/svg"><path d="m409.898438 153.902344 101.796874-153.902344h-156.117187l-2.914063 11.292969c-7.480468 28.992187-21.519531 68.285156-45.914062 90.839843-3.015625 2.785157-5.871094 5.023438-8.5 6.816407v-108.949219h-135.972656v30.101562h12.703125v68.222657c-15.242188-13.40625-34.394531-38.988281-39.410157-84.90625l-1.464843-13.417969h-134.105469l4.605469 18.65625c16.558593 67.09375 41.398437 122.058594 73.835937 163.367188 26.480469 33.726562 58.019532 58.488281 93.738282 73.59375 31.898437 13.492187 61.269531 16.800781 82.402343 16.800781 19.4375 0 31.902344-2.800781 32.949219-3.042969l11.464844-2.671875.59375-41.351563 51.058594 44.417969h161.355468zm0 0" fill="#7080e5"/><path d="m409.898438 153.902344 101.796874-153.902344h-156.117187l-2.914063 11.292969c-7.480468 28.992187-21.519531 68.285156-45.914062 90.839843-3.015625 2.785157-5.871094 5.023438-8.5 6.816407v-108.949219h-51.6875v272.257812c2.785156.109376 5.460938.160157 8.019531.160157 19.4375 0 31.902344-2.800781 32.949219-3.042969l11.464844-2.671875.59375-41.351563 51.058594 44.417969h161.355468zm0 0" fill="#4c60de"/></svg>